<svg width="48" height="48" viewBox="0 0 48 48" fill="none" xmlns="http://www.w3.org/2000/svg">
  <path d="M41.4695 35.6824L38.8741 16.4778C38.7929 15.5928 38.6893 14.0751 38.6876 14.0596L38.6686 13.7887H32.9856L32.692 13.8247V14.1162C32.692 14.8811 32.433 15.6237 32.1221 16.4435L25.8417 32.3708L18.715 15.7609C16.0678 9.67264 12.3603 7.98679 10.4159 7.52202C7.6115 6.85145 5.85013 7.43627 5.85013 7.43627C5.8743 7.43627 7.77555 7.34538 9.39531 8.5133C12.3292 10.6296 12.5122 13.3822 12.0339 16.9374L9.68887 34.1887C9.37804 36.2724 8.7512 39.7401 8.74602 39.7744L8.68386 40.1174H12.6763L12.697 39.8499C12.6987 39.8225 12.9129 37.1693 13.222 34.8164L15.327 19.0503L22.3932 35.7116C23.374 37.9925 23.9698 39.0696 25.9556 40.5668L26.2647 40.8L34.8056 19.1035L36.9124 36.804C37.0402 38.116 37.1351 39.8242 37.1369 39.8413L37.1524 40.1157H42.1499L42.0929 39.7762C42.0894 39.7539 41.7078 37.4935 41.4712 35.6807L41.4695 35.6824Z" fill="#D1005D"/>
</svg>
