<svg version="1.2" xmlns="http://www.w3.org/2000/svg" viewBox="0 0 1547 1420" width="1547" height="1420">
	<title>BCP</title>
	<style>
		.s0 { fill: #D1005D } 
	</style>
	<path class="s0" d="m1142.3 389.2c13.6-35.3 25.2-69.4 25.2-104.7v-2.1h232.6c0 0 4.7 66.3 7.9 105.7l112.5 832c10 79.5 26.3 177.8 26.3 177.8h-187.8c0 0-4.2-74.1-10-132.5l-96.8-816.8-378.8 971.4c-85.7-64.2-108.9-110.4-149.4-205.1l-322.5-764.2-95.7 727.9c-14.2 103.6-23.2 219.3-23.2 219.3h-144.7c0 0 26.9-150.9 40-242.4l101-747.4c23.2-172-27.8-298.7-111.5-352.9-59.4-45.2-167.3-50.5-167.3-50.5 0 0 143.1-11.5 192.6 5.3 111 26.8 250.9 121 349.8 350.3l318.8 747.8z"/>
</svg>
